<svg height="499pt" viewBox="0 -9 499.20714 499" width="499pt" xmlns="http://www.w3.org/2000/svg"><path d="m185.414062 411.410156c-2.121093 0-4.15625-.84375-5.65625-2.34375-.980468-.976562-1.695312-2.1875-2.070312-3.519531-4.175781-14.132813-11.378906-27.179687-21.113281-38.242187-4.199219-4.824219-8.773438-9.316407-13.679688-13.421876-37.175781-31.234374-85.863281-34.578124-108.527343-7.585937-5.550782 6.644531-9.210938 14.65625-10.609376 23.199219-.128906 1.503906-.683593 2.9375-1.601562 4.136718-.148438.191407-.308594.375-.484375.570313-3.015625 3.148437-7.996094 3.304687-11.203125.351563-.125-.113282-.246094-.242188-.367188-.359376-3.546874-3.539062-6.277343-7.808593-8-12.515624-6.273437-17.183594 1.601563-37.765626 22.167969-57.957032 22.78125-20.933594 49.652344-36.917968 78.921875-46.945312 9.058594-3.332032 18.296875-6.152344 27.671875-8.457032 2.640625-.640624 5.429688.105469 7.398438 1.980469s2.851562 4.621094 2.34375 7.292969c-2.136719 9.894531.746093 20.207031 7.703125 27.558594 9.257812 7.785156 26.015625 6.183594 44.5625-4-2.625-11.695313-3.355469-23.734375-2.160156-35.664063l-36.777344-55.78125c-1.9375-2.953125-1.710938-6.832031.5625-9.535156 2.273437-2.707031 6.050781-3.601563 9.292968-2.203125l44.242188 19.074219c13.367188-19.390625 33.265625-33.320313 56.054688-39.25l-2.800782-48.09375c-.199218-3.527344 1.933594-6.769531 5.253906-7.976563 3.316407-1.207031 7.035157-.097656 9.148438 2.734375l39.933594 53.550781c11.625 2.960938 22.699218 7.761719 32.800781 14.226563 15.929687-13.929687 23.199219-29.121094 19.015625-40.472656-4.566406-9.128907-13.355469-15.402344-23.472656-16.753907-2.628906-.496093-4.835938-2.277343-5.878906-4.746093-1.042969-2.464844-.78125-5.289063.695312-7.523438 5.371094-8.023437 11.183594-15.742187 17.410156-23.121093 19.429688-24.074219 43.640625-43.859376 71.101563-58.105469 26.015625-12.40625 48.058593-12.796875 62.03125-1.015625 3.894531 3.277344 7.011719 7.375 9.128906 12 .074219.148437.136719.296875.191406.449218 1.128907 2.84375.53125 6.082032-1.53125 8.339844-2.066406 2.257813-5.238281 3.144532-8.171875 2.277344-8.425781-1.554688-17.113281-.835938-25.167968 2.078125-33.160157 12.074219-46.640626 58.992187-30.046876 104.59375 2.195313 6.019531 4.855469 11.863281 7.960938 17.472656 7.066406 12.925781 16.871094 24.15625 28.726562 32.902344 2.792969 1.988281 4.007813 5.53125 3.023438 8.816406-.984375 3.28125-3.949219 5.574219-7.375 5.695313-19.003906 1.023437-37.738281 4.96875-55.535156 11.703125-4.722656 1.722656-9.402344 3.609375-13.984375 5.640625 16.613281 45.992187 2.335937 96.890625-35.527344 123.417968-37.867187 26.527344-90.578125 22.519532-128.121094-8.800781-3.496093 3.632813-6.871093 7.382813-10.074219 11.199219-12.414062 14.425781-22.53125 30.675781-29.992187 48.183594-1.015625 2.472656-3.199219 4.273437-5.820313 4.800781-.527343.09375-1.058593.144531-1.59375.144531zm-107.65625-99.199218c27.785157.734374 54.449219 11.117187 75.417969 29.367187 5.558594 4.648437 10.738281 9.730469 15.496094 15.199219 6.945313 8.015625 12.835937 16.886718 17.527344 26.398437 6.933593-12.539062 15.097656-24.359375 24.367187-35.285156 5.171875-6.160156 10.65625-12.058594 16.421875-17.664063 3.101563-2.988281 8.007813-2.988281 11.105469 0 32.242188 30.800782 80.089844 36.0625 113.734375 12.503907 33.648437-23.5625 45.066406-70.320313 27.144531-111.160157-1.71875-3.933593-.027344-8.523437 3.832032-10.402343 7.246093-3.511719 14.667968-6.648438 22.234374-9.40625 13.433594-4.96875 27.328126-8.597657 41.480469-10.824219-7.339843-7.648438-13.664062-16.210938-18.816406-25.472656-3.519531-6.351563-6.535156-12.972656-9.015625-19.800782-19.609375-53.878906-1.847656-110 39.597656-125.078124 2.855469-1.039063 5.785156-1.867188 8.761719-2.480469-11.457031-.3125-22.792969 2.394531-32.871094 7.839843-25.402343 13.265626-47.785156 31.640626-65.746093 53.96875-3.640626 4.335938-7.054688 8.679688-10.222657 12.976563 11.03125 4 19.84375 12.5 24.238281 23.382813 7.105469 19.34375-3.597656 42.625-28.625 62.214843-2.792968 2.199219-6.707031 2.289063-9.597656.21875-10.503906-7.554687-22.410156-12.929687-35.023437-15.800781-1.867188-.417969-3.523438-1.492188-4.664063-3.023438l-25.730468-34.496093 1.648437 28.269531c.234375 4.03125-2.574219 7.601562-6.542969 8.328125-23.429687 4.308594-43.824218 18.59375-55.878906 39.136719-2.046875 3.484375-6.367188 4.898437-10.074219 3.296875l-26.007812-11.199219 23.625 36c1.050781 1.597656 1.492187 3.519531 1.246093 5.414062-1.625 12.839844-.652343 25.878907 2.859376 38.335938.945312 3.417969-.46875 7.054688-3.480469 8.929688-26.984375 16.800781-52.503907 18.894531-68.28125 5.597656-8.707031-7.855469-13.675781-19.039063-13.664063-30.765625-5.136718 1.511719-10.398437 3.238281-15.695312 5.175781-27.121094 9.242188-52.039063 23.992188-73.183594 43.328125-8.570312 7.585937-14.988281 17.300781-18.609375 28.160156 1.589844-2.585937 3.367187-5.050781 5.320313-7.375 14.066406-15.859375 34.492187-24.589843 55.671874-23.792969zm0 0"/><path d="m248.804688 280.105469c-11.386719.015625-21.21875-7.972657-23.53125-19.125-2.316407-11.148438 3.527343-22.390625 13.980468-26.90625s22.644532-1.066407 29.175782 8.261719c5.132812 7.328124 5.761718 16.898437 1.640624 24.835937-4.125 7.9375-12.320312 12.921875-21.265624 12.933594zm-.039063-32c-3.683594.007812-6.886719 2.53125-7.757813 6.113281-.867187 3.578125.820313 7.289062 4.089844 8.988281 3.273438 1.695313 7.277344.941407 9.703125-1.832031 2.429688-2.773438 2.648438-6.84375.535157-9.863281-1.503907-2.140625-3.957032-3.410157-6.570313-3.40625zm0 0"/><path d="m304.804688 240.105469c-11.386719.015625-21.21875-7.972657-23.53125-19.125-2.316407-11.148438 3.527343-22.390625 13.980468-26.90625s22.644532-1.066407 29.175782 8.261719c5.132812 7.328124 5.761718 16.898437 1.640624 24.835937-4.125 7.9375-12.320312 12.921875-21.265624 12.933594zm-.039063-32c-3.683594.007812-6.886719 2.53125-7.757813 6.113281-.867187 3.578125.820313 7.289062 4.089844 8.988281 3.273438 1.695313 7.277344.941407 9.703125-1.832031 2.429688-2.773438 2.648438-6.84375.535157-9.863281-1.503907-2.140625-3.957032-3.410157-6.570313-3.40625zm0 0"/><path d="m328.101562 316.859375c-.464843 0-.933593-.042969-1.390624-.128906l-31.546876-5.554688c-4.25-.859375-7.039062-4.953125-6.285156-9.226562.75-4.273438 4.773438-7.167969 9.0625-6.523438l23.632813 4.167969 4.167969-23.648438c.769531-4.351562 4.917968-7.257812 9.273437-6.488281 4.351563.769531 7.253906 4.921875 6.488281 9.273438l-5.5625 31.519531c-.671875 3.808594-3.972656 6.589844-7.839844 6.609375zm0 0"/><path d="m152.765625 104.105469c-26.472656 0-48-17.945313-48-40 0-22.054688 21.527344-40 48-40 2.097656.003906 4.191406.136719 6.273437.398437 6.671876-11.945312 18.160157-20.441406 31.535157-23.328125s27.347656.117188 38.351562 8.25c31.28125-6.847656 59.839844 13.390625 59.839844 38.679688 0 25.289062-28.542969 45.527343-59.839844 38.679687-12.582031 9.269532-28.917969 11.753906-43.6875 6.640625-9.355469 7.03125-20.769531 10.785157-32.472656 10.679688zm0-64c-17.648437 0-32 10.769531-32 24s14.351563 24 32 24c9.375.199219 18.460937-3.261719 25.328125-9.648438 2.394531-2.378906 6.023438-3 9.070312-1.550781 11.453126 5.609375 25.171876 3.671875 34.617188-4.898438 2.0625-1.789062 4.894531-2.417968 7.519531-1.664062 3.71875 1.136719 7.578125 1.730469 11.464844 1.761719 17.648437 0 32-10.769531 32-24 0-16-20.726563-28.910157-43.480469-22.265625-2.625.757812-5.457031.132812-7.519531-1.664063-7.757813-6.941406-18.429687-9.628906-28.550781-7.191406s-18.398438 9.6875-22.144532 19.402344c-1.449218 3.675781-5.363281 5.746093-9.214843 4.871093-2.976563-.726562-6.027344-1.113281-9.089844-1.152343zm0 0"/><path d="m72.765625 144.105469c-35.289063 0-64-32.296875-64-72s28.710937-72 64-72c8.394531-.0195315 16.6875 1.828125 24.28125 5.398437 2.851563 1.34375 4.648437 4.238282 4.589844 7.390625-.0625 3.15625-1.96875 5.976563-4.871094 7.210938-20.6875 8.664062-33.492187 29.613281-31.761719 51.976562 1.730469 22.359375 17.605469 41.09375 39.378906 46.472657 3.03125.738281 5.355469 3.175781 5.953126 6.242187.597656 3.066406-.644532 6.195313-3.179688 8.019531-9.984375 7.300782-22.023438 11.25-34.390625 11.289063zm0-128c-26.472656 0-48 25.128906-48 56 0 30.871093 21.527344 56 48 56 3.308594 0 6.605469-.398438 9.816406-1.183594-19.117187-11.132813-31.632812-30.863281-33.558593-52.902344-1.921876-22.039062 6.984374-43.636719 23.886718-57.914062zm0 0"/><path d="m416.765625 480.105469c-4.417969 0-8-3.582031-8-8s3.582031-8 8-8c30.914063-.035157 55.964844-25.085938 56-56 0-4.417969 3.582031-8 8-8s8 3.582031 8 8c-.042969 39.746093-32.253906 71.957031-72 72zm0 0"/><path d="m400.765625 440.105469c-4.417969 0-8-3.582031-8-8s3.582031-8 8-8c17.671875 0 32-14.328125 32-32 0-4.417969 3.582031-8 8-8s8 3.582031 8 8c-.027344 26.5-21.5 47.972656-48 48zm0 0"/><path d="m384.765625 400.105469c-4.417969 0-8-3.582031-8-8s3.582031-8 8-8 8-3.582031 8-8 3.582031-8 8-8 8 3.582031 8 8c0 13.253906-10.746094 24-24 24zm0 0"/></svg>