<?xml version="1.0" encoding="iso-8859-1"?>
<!-- Generator: Adobe Illustrator 19.0.0, SVG Export Plug-In . SVG Version: 6.00 Build 0)  -->
<svg version="1.1" id="Layer_1" xmlns="http://www.w3.org/2000/svg" xmlns:xlink="http://www.w3.org/1999/xlink" x="0px" y="0px"
	 viewBox="0 0 503.322 503.322" style="enable-background:new 0 0 503.322 503.322;" xml:space="preserve">
<g transform="translate(1 1)">
	<g>
		<path d="M493.644-1H372.153H250.661H129.169H7.678C2.471-1-1,2.471-1,7.678v69.424v69.424v69.424v69.424v69.424v69.424v69.424
			c0,5.207,3.471,8.678,8.678,8.678h121.492h121.492h121.492h121.492c5.207,0,8.678-3.471,8.678-8.678V424.22v-69.424v-69.424
			v-69.424v-69.424V77.102V7.678C502.322,2.471,498.851-1,493.644-1z M372.153,415.542h-52.068v-52.068h52.068h52.068v52.068
			H372.153z M250.661,415.542h-52.068v-52.068h52.068h52.068v52.068H250.661z M129.169,415.542H77.102v-52.068h52.068h52.068v52.068
			H129.169z M16.356,415.542v-52.068h43.39v52.068H16.356z M129.169,85.78h52.068v52.068h-52.068H77.102V85.78H129.169z
			 M250.661,85.78h52.068v52.068h-52.068h-52.068V85.78H250.661z M372.153,85.78h52.068v52.068h-52.068h-52.068V85.78H372.153z
			 M484.966,85.78v52.068h-43.39V85.78H484.966z M484.966,207.271h-52.068h-52.068v-52.068h52.068h52.068V207.271z M484.966,276.695
			h-43.39v-52.068h43.39V276.695z M484.966,346.119h-52.068h-52.068v-52.068h52.068h52.068V346.119z M311.407,346.119h-52.068
			v-52.068h52.068h52.068v52.068H311.407z M189.915,346.119h-52.068v-52.068h52.068h52.068v52.068H189.915z M68.424,346.119H16.356
			v-52.068h52.068h52.068v52.068H68.424z M16.356,224.627h43.39v52.068h-43.39V224.627z M16.356,155.203h52.068h52.068v52.068
			H68.424H16.356V155.203z M189.915,155.203h52.068v52.068h-52.068h-52.068v-52.068H189.915z M311.407,155.203h52.068v52.068
			h-52.068h-52.068v-52.068H311.407z M424.22,276.695h-52.068h-52.068v-52.068h52.068h52.068V276.695z M250.661,276.695h-52.068
			v-52.068h52.068h52.068v52.068H250.661z M129.169,276.695H77.102v-52.068h52.068h52.068v52.068H129.169z M59.746,137.847h-43.39
			V85.78h43.39V137.847z M441.576,363.475h43.39v52.068h-43.39V363.475z M484.966,68.424h-52.068h-52.068V16.356h104.136V68.424z
			 M363.475,68.424h-52.068h-52.068V16.356h104.136V68.424z M241.983,68.424h-52.068h-52.068V16.356h104.136V68.424z M16.356,16.356
			h104.136v52.068H68.424H16.356V16.356z M16.356,432.898h52.068h52.068v52.068H16.356V432.898z M137.847,432.898h52.068h52.068
			v52.068H137.847V432.898z M259.339,432.898h52.068h52.068v52.068H259.339V432.898z M484.966,484.966H380.831v-52.068h52.068
			h52.068V484.966z"/>
	</g>
</g>
<g>
</g>
<g>
</g>
<g>
</g>
<g>
</g>
<g>
</g>
<g>
</g>
<g>
</g>
<g>
</g>
<g>
</g>
<g>
</g>
<g>
</g>
<g>
</g>
<g>
</g>
<g>
</g>
<g>
</g>
</svg>
