<svg height="512pt" viewBox="0 -11 512.00017 512" width="512pt" xmlns="http://www.w3.org/2000/svg"><path d="m331.050781 431.65625c6.460938-6.996094 9.238281-15.574219 9.238281-25.058594 0-9.511718-2.722656-18.148437-9.238281-25.140625-6.347656-6.820312-14.367187-9.964843-23.605469-9.964843-9.265624 0-17.371093 3.058593-23.773437 9.851562-6.546875 6.964844-9.238281 15.574219-9.238281 25.085938 0 9.570312 2.691406 18.289062 9.265625 25.3125 6.375 6.820312 14.394531 9.964843 23.660156 9.964843 9.292969 0 17.339844-3.171875 23.691406-10.050781zm-34.0625-11.296875c-3.089843-3.9375-4.023437-8.949219-4.023437-13.847656 0-4.867188 1.019531-9.683594 4.136718-13.503907 2.664063-3.285156 6.035157-4.925781 10.257813-4.925781 4.25 0 7.707031 1.558594 10.34375 4.925781 3.089844 3.90625 4.050781 8.804688 4.050781 13.675782s-1.019531 9.738281-4.078125 13.617187c-2.664062 3.367188-6.066406 4.984375-10.316406 4.984375-4.277344 0-7.707031-1.558594-10.371094-4.925781zm0 0"/><path d="m264.542969 372.625h-33.265625c-2.265625 0-4.25.875-5.808594 2.519531-1.53125 1.613281-2.351562 3.566407-2.351562 5.804688 0 2.347656.820312 4.386719 2.492187 6.027343 1.558594 1.472657 3.429687 2.351563 5.582031 2.351563h7.765625v42.921875c0 2.460938.90625 4.613281 2.632813 6.339844l.03125.058594.054687.027343c1.8125 1.613281 3.96875 2.605469 6.40625 2.605469 2.40625 0 4.503907-.964844 6.175781-2.691406 1.699219-1.753906 2.605469-3.878906 2.605469-6.339844v-42.835938h7.679688c2.238281 0 4.222656-.820312 5.808593-2.4375 1.585938-1.613281 2.4375-3.59375 2.4375-5.859374 0-2.292969-.820312-4.332032-2.410156-5.972657-1.585937-1.644531-3.570312-2.519531-5.835937-2.519531zm0 0"/><path d="m200.105469 422.707031c-1.441407 1.105469-3.199219 1.5-5.015625 1.5-2.804688 0-6.0625-.988281-8.667969-1.953125-1.84375-.648437-4.960937-1.78125-6.886719-1.78125-2.269531 0-4.25.847656-5.753906 2.546875-1.558594 1.726563-2.238281 3.820313-2.238281 6.113281v.453126c0 4.359374 3.429687 7.105468 7.027343 8.832031 4.875 2.324219 10.484376 3.03125 15.8125 3.03125 6.914063 0 13.628907-1.671875 18.929688-6.371094 4.957031-4.414063 7.28125-10.078125 7.28125-16.730469 0-7.023437-2.71875-12.742187-8.730469-16.421875-3.710937-2.378906-8.78125-3.964843-13.003906-5.179687-1.699219-.453125-3.398437-.964844-5.042969-1.585938-.566406-.199218-1.644531-.59375-2.15625-.964844-.535156-.453124-1.160156-1.074218-1.160156-1.839843 0-1.074219.539062-1.8125 1.359375-2.433594 1.191406-.878906 2.578125-1.21875 4.023437-1.21875 1.386719 0 3.175782.453125 4.503907.824219l2.523437.875c1.558594.511718 3.628906 1.164062 5.269532 1.164062 2.296874 0 4.25-.90625 5.78125-2.605468 1.53125-1.671876 2.296874-3.710938 2.296874-5.976563 0-3.933594-2.691406-6.625-5.953124-8.40625-4.050782-2.179687-8.726563-2.917969-13.257813-2.917969-6.660156 0-12.867187 1.753906-17.996094 6.117188-4.816406 4.160156-7.253906 9.511718-7.253906 15.910156 0 6.085938 2.242187 11.15625 7.367187 14.496094 1.53125 1.019531 3.402344 1.8125 5.128907 2.492187 2.523437.960938 5.128906 1.78125 7.738281 2.546875 2.40625.707032 5.242188 1.527344 7.535156 2.574219.625.285156 1.472656.765625 1.84375 1.386719.339844.625.480469 1.359375.480469 2.066406 0 1.476562-.59375 2.550781-1.785156 3.457031zm0 0"/><path d="m427.476562 438.617188c1.757813 1.699218 3.855469 2.664062 6.289063 2.664062 2.496094 0 4.675781-.964844 6.375-2.804688 1.671875-1.785156 2.582031-3.933593 2.582031-6.398437v-22.933594l16.632813-22.761719c1.1875-1.613281 1.753906-3.453124 1.753906-5.4375 0-2.492187-.960937-4.640624-2.773437-6.339843-1.730469-1.671875-3.855469-2.605469-6.265626-2.605469-3.085937 0-5.582031 1.359375-7.308593 3.90625l-10.996094 15.769531-10.90625-15.769531c-1.703125-2.578125-4.222656-3.90625-7.3125-3.90625-2.523437 0-4.789063.878906-6.574219 2.691406-1.699218 1.699219-2.664062 3.820313-2.664062 6.253906 0 2.011719.765625 3.851563 1.957031 5.4375l16.460937 22.761719v22.933594c0 2.546875.910157 4.785156 2.75 6.539063zm0 0"/><path d="m400.527344 394.480469c0-6.230469-2.179688-11.578125-6.855469-15.742188-4.757813-4.246093-10.625-6-16.972656-6h-16.433594c-2.523437 0-4.734375.875-6.492187 2.660157-1.8125 1.8125-2.664063 4.078124-2.664063 6.625v50.054687c0 2.519531.878906 4.730469 2.664063 6.511719l.03125.058594.027343.027343c1.839844 1.613281 3.964844 2.605469 6.429688 2.605469 2.410156 0 4.5625-.847656 6.292969-2.578125 1.726562-1.753906 2.578124-3.90625 2.578124-6.371094v-14.464843l16.011719 19.703124c1.8125 2.238282 4.136719 3.710938 7.054688 3.710938 2.4375 0 4.617187-.878906 6.433593-2.546875l.054688-.03125.027344-.054687c1.644531-1.8125 2.609375-3.9375 2.609375-6.398438 0-2.238281-.824219-4.191406-2.324219-5.859375l-12.070312-13.28125c2.039062-.566406 4.109374-1.328125 5.722656-2.433594 5.554687-3.824219 7.875-9.542969 7.875-16.195312zm-19.636719 4.273437c-1.160156 1.105469-2.492187 1.671875-4.109375 1.671875h-7.5625v-10.898437h7.394531c1.613281 0 3.058594.421875 4.222657 1.613281l.027343.027344.058594.027343c1.101563.992188 1.699219 2.152344 1.699219 3.652344 0 1.558594-.597656 2.804688-1.730469 3.90625zm0 0"/><path d="m114.789062 438.734375c1.726563 1.753906 3.878907 2.632813 6.34375 2.632813 2.496094 0 4.648438-.933594 6.378907-2.746094 1.671875-1.757813 2.578125-3.851563 2.578125-6.285156v-51.21875c0-2.519532-.878906-4.726563-2.636719-6.539063-1.726563-1.726563-3.851563-2.660156-6.316406-2.660156-2.464844 0-4.589844 1.046875-6.292969 2.828125-1.671875 1.785156-2.664062 3.910156-2.664062 6.371094v16.363281h-23.492188v-16.363281c0-2.492188-.875-4.671876-2.578125-6.453126-1.699219-1.785156-3.824219-2.746093-6.289063-2.746093-2.496093 0-4.648437 1.019531-6.378906 2.828125-1.699218 1.785156-2.664062 3.910156-2.664062 6.371094v51.21875c0 2.488281.878906 4.667968 2.664062 6.425781 1.757813 1.726562 3.910156 2.605469 6.378906 2.605469 2.464844 0 4.617188-.878907 6.316407-2.632813 1.730469-1.753906 2.550781-3.933594 2.550781-6.398437v-18.148438h23.492188v18.144531c0 2.492188.878906 4.644531 2.609374 6.402344zm0 0"/><path d="m145.445312 374.746094c-1.671874 1.785156-2.664062 3.910156-2.664062 6.371094v51.132812c0 2.460938.878906 4.644531 2.609375 6.398438 1.726563 1.753906 3.910156 2.632812 6.347656 2.632812 2.464844 0 4.617188-.878906 6.347657-2.632812 1.726562-1.726563 2.605468-3.851563 2.605468-6.316407v-51.214843c0-2.492188-.851562-4.671876-2.578125-6.457032-1.699219-1.78125-3.824219-2.746094-6.292969-2.746094-2.492187 0-4.644531 1.023438-6.375 2.832032zm0 0"/><path d="m501.917969 148.726562h-375.316407l368.472657-71.234374c2.625-.507813 4.945312-2.039063 6.441406-4.253907 1.5-2.21875 2.054687-4.9375 1.542969-7.566406l-11.132813-57.5c-1.0625-5.46875-6.351562-9.046875-11.816406-7.984375l-105.59375 20.410156c-.21875.035156-.441406.074219-.660156.125l-319.199219 61.699219c-.035156.007813-.066406.011719-.101562.019531l-46.382813 8.964844c-2.628906.511719-4.945313 2.039062-6.441406 4.257812-1.5 2.214844-2.054688 4.9375-1.546875 7.5625l10.953125 56.550782v320.148437c0 5.570313 4.515625 10.085938 10.085937 10.085938h192.542969c5.570313 0 10.085937-4.515625 10.085937-10.085938 0-5.566406-4.515624-10.082031-10.085937-10.082031h-182.460937v-242.371094h44.769531c.007812 0 .019531.003906.027343.003906.003907 0 .007813-.003906.015626-.003906h81.28125c.007812 0 .019531.003906.027343.003906.003907 0 .011719-.003906.015625-.003906h81.3125c.007813 0 .015625.003906.023438.003906.007812 0 .011718-.003906.019531-.003906h81.28125c.007813 0 .015625.003906.023437.003906.007813 0 .011719-.003906.019532-.003906h81.28125c.007812 0 .015625.003906.023437.003906.007813 0 .011719-.003906.019531-.003906h90.386719v242.371094h-187.277343c-5.570313 0-10.085938 4.515625-10.085938 10.082031 0 5.570313 4.515625 10.085938 10.085938 10.085938h197.363281c5.566406 0 10.082031-4.515625 10.082031-10.085938v-321.113281c0-5.570312-4.515625-10.085938-10.082031-10.085938zm-161.625 58.578126 28.835937-38.410157h56.101563l-28.835938 38.410157zm-81.332031 0 28.816406-38.410157h56.128906l-28.835938 38.410157zm-81.347657 0 28.835938-38.410157h56.113281l-28.816406 38.410157zm-81.324219 0 28.835938-38.410157h56.105469l-28.835938 38.410157zm-64.984374-48.492188c0-5.679688 4.628906-10.300781 10.320312-10.300781 5.6875 0 10.316406 4.621093 10.316406 10.300781s-4.628906 10.300781-10.316406 10.300781c-5.691406 0-10.320312-4.621093-10.320312-10.300781zm102.753906-71.195312 40.332031 31.328124-53.546875 10.351563-40.3125-31.332031zm79.847656-15.433594 40.328125 31.324218-53.515625 10.347657-40.332031-31.328125zm79.847656-15.433594 40.324219 31.324219-53.515625 10.34375-40.328125-31.320313zm79.875-15.4375 40.300782 31.324219-53.523438 10.347656-40.324219-31.324219zm107.710938 18.292969-41.089844 7.941406-40.300781-31.324219 74.089843-14.320312zm-427.128906 43.445312 40.316406 31.335938-28.960938 5.597656c-5.585937-7.082031-14.238281-11.640625-23.941406-11.640625-5.550781 0-10.75 1.496094-15.238281 4.09375l-4.480469-23.140625zm-22.90625 84.429688c3.226562 1.164062 6.699218 1.800781 10.320312 1.800781 13.273438 0 24.585938-8.527344 28.761719-20.386719h29.519531l-28.835938 38.410157h-39.765624zm390.3125 19.824219 28.835937-38.410157h41.378906v38.410157zm0 0"/><path d="m451.136719 334.859375c5.570312 0 10.085937-4.511719 10.085937-10.082031v-41.25c0-5.570313-4.515625-10.085938-10.085937-10.085938h-384.804688c-5.570312 0-10.085937 4.515625-10.085937 10.085938v41.25c0 5.570312 4.515625 10.082031 10.085937 10.082031zm-10.082031-20.167969h-112.191407v-21.082031h112.191407zm-132.359376 0h-116.582031v-21.082031h116.582031zm-232.277343-21.082031h95.527343v21.082031h-95.527343zm0 0"/><path d="m259.527344 469.84375h-.167969c-5.570313 0-10.085937 4.511719-10.085937 10.082031 0 5.570313 4.515624 10.085938 10.085937 10.085938h.167969c5.570312 0 10.085937-4.515625 10.085937-10.085938 0-5.570312-4.515625-10.082031-10.085937-10.082031zm0 0"/></svg>