<?xml version="1.0" encoding="iso-8859-1"?>
<!-- Generator: Adobe Illustrator 17.1.0, SVG Export Plug-In . SVG Version: 6.00 Build 0)  -->
<!DOCTYPE svg PUBLIC "-//W3C//DTD SVG 1.1//EN" "http://www.w3.org/Graphics/SVG/1.1/DTD/svg11.dtd">
<svg version="1.1" id="Capa_1" xmlns="http://www.w3.org/2000/svg" xmlns:xlink="http://www.w3.org/1999/xlink" x="0px" y="0px"
	 viewBox="0 0 234.809 234.809" style="enable-background:new 0 0 234.809 234.809;" xml:space="preserve">
<path d="M7.5,53.988c-4.135,0-7.5-3.364-7.5-7.5V20.571c0-4.136,3.365-7.5,7.5-7.5h94.904c4.135,0,7.5,3.364,7.5,7.5v25.917
	c0,4.136-3.365,7.5-7.5,7.5H7.5z M227.309,53.988c4.135,0,7.5-3.364,7.5-7.5V20.571c0-4.136-3.365-7.5-7.5-7.5h-94.904
	c-4.135,0-7.5,3.364-7.5,7.5v25.917c0,4.136,3.365,7.5,7.5,7.5H227.309z M164.856,109.904c4.135,0,7.5-3.365,7.5-7.5V76.488
	c0-4.136-3.365-7.5-7.5-7.5H69.952c-4.135,0-7.5,3.364-7.5,7.5v25.917c0,4.135,3.365,7.5,7.5,7.5H164.856z M39.952,109.904
	c4.136,0,7.5-3.364,7.5-7.5V76.488c0-4.136-3.364-7.5-7.5-7.5H8.048c-4.136,0-7.5,3.364-7.5,7.5v25.917c0,4.136,3.364,7.5,7.5,7.5
	H39.952z M226.761,109.904c4.136,0,7.5-3.364,7.5-7.5V76.488c0-4.136-3.364-7.5-7.5-7.5h-31.904c-4.136,0-7.5,3.364-7.5,7.5v25.917
	c0,4.136,3.364,7.5,7.5,7.5H226.761z M102.404,165.821c4.135,0,7.5-3.364,7.5-7.5v-25.917c0-4.135-3.365-7.5-7.5-7.5H7.5
	c-4.135,0-7.5,3.365-7.5,7.5v25.917c0,4.136,3.365,7.5,7.5,7.5H102.404z M227.309,165.821c4.135,0,7.5-3.364,7.5-7.5v-25.917
	c0-4.135-3.365-7.5-7.5-7.5h-94.904c-4.135,0-7.5,3.365-7.5,7.5v25.917c0,4.136,3.365,7.5,7.5,7.5H227.309z M164.856,221.738
	c4.135,0,7.5-3.364,7.5-7.5v-25.917c0-4.136-3.365-7.5-7.5-7.5H69.952c-4.135,0-7.5,3.364-7.5,7.5v25.917c0,4.136,3.365,7.5,7.5,7.5
	H164.856z M39.952,221.738c4.136,0,7.5-3.364,7.5-7.5v-25.917c0-4.136-3.364-7.5-7.5-7.5H8.048c-4.136,0-7.5,3.364-7.5,7.5v25.917
	c0,4.136,3.364,7.5,7.5,7.5H39.952z M226.761,221.738c4.136,0,7.5-3.364,7.5-7.5v-25.917c0-4.136-3.364-7.5-7.5-7.5h-31.904
	c-4.136,0-7.5,3.364-7.5,7.5v25.917c0,4.136,3.364,7.5,7.5,7.5H226.761z"/>
<g>
</g>
<g>
</g>
<g>
</g>
<g>
</g>
<g>
</g>
<g>
</g>
<g>
</g>
<g>
</g>
<g>
</g>
<g>
</g>
<g>
</g>
<g>
</g>
<g>
</g>
<g>
</g>
<g>
</g>
</svg>
