<?xml version="1.0"?>
<svg xmlns="http://www.w3.org/2000/svg" viewBox="0 0 64 64" width="512" height="512"><g id="outline"><path d="M38,46H26a1,1,0,0,0-1,1v8a1,1,0,0,0,1,1H38a1,1,0,0,0,1-1V47A1,1,0,0,0,38,46Zm-1,8H27V48H37Z"/><rect x="14" y="56" width="2" height="2"/><path d="M61.268,7.037l-18-5A.974.974,0,0,0,43,2H21a.974.974,0,0,0-.268.037l-18,5A1,1,0,0,0,2,8v9a1,1,0,0,0,1,1H6V42H5a1,1,0,0,0-1,1V61a1,1,0,0,0,1,1H59a1,1,0,0,0,1-1V43a1,1,0,0,0-1-1H58V18h3a1,1,0,0,0,1-1V8A1,1,0,0,0,61.268,7.037ZM17,9a1,1,0,0,1,0,2H4V9Zm10.1,9A5.016,5.016,0,0,0,31,21.9V24a1.006,1.006,0,0,0-.555.168l-3,2a1,1,0,0,0-.394,1.148l1,3a1,1,0,0,0,1.9-.632l-.759-2.276L31,26.2V28a1,1,0,0,0,2,0V26.2l1.81,1.206-.759,2.276a1,1,0,0,0,1.9.632l1-3a1,1,0,0,0-.394-1.148l-3-2A1.006,1.006,0,0,0,33,24V21.9A5.016,5.016,0,0,0,36.9,18H42V42H37V39.816a3,3,0,1,0-2,0V42H32V41a3,3,0,0,0-6,0v1H22V18ZM32,20a3.006,3.006,0,0,1-2.829-2h5.658A3.006,3.006,0,0,1,32,20Zm17.586-2L44,23.586V18ZM35,37a1,1,0,1,1,1,1A1,1,0,0,1,35,37Zm-5,5H28V41a1,1,0,0,1,2,0ZM20,42H14.414L20,36.414Zm0-8.414L11.586,42H9.414l4.293-4.293-1.414-1.414L8,40.586V27.414l5.707-5.707-1.414-1.414L8,24.586V18H20ZM6,48h4v6H6Zm0,8h5a1,1,0,0,0,1-1V47a1,1,0,0,0-1-1H6V44H20V56H18v2h2v2H6ZM22,44H42V60H22ZM44,60V58h4V56H44V54h2V52H44V44H58v2H53a1,1,0,0,0-1,1v8a1,1,0,0,0,1,1h5v4Zm14-6H54V48h4ZM44,42V26.414L52.414,18h2.172l-4.293,4.293,1.414,1.414L56,19.414V32.586l-5.707,5.707,1.414,1.414L56,35.414V42ZM4,16V13H17a3,3,0,0,0,0-6H10.337l10.8-3H42.864l10.8,3H47a3,3,0,0,0,0,6H60v3ZM60,9v2H47a1,1,0,0,1,0-2Z"/><path d="M32,6c-4.816,0-10,1.252-10,4s5.184,4,10,4,10-1.252,10-4S36.816,6,32,6Zm0,6c-5.25,0-8-1.486-8-2s2.75-2,8-2,8,1.486,8,2S37.25,12,32,12Z"/><rect x="13.586" y="34" width="2.828" height="2" transform="translate(-20.355 20.858) rotate(-45)"/><rect x="47.586" y="24" width="2.828" height="2" transform="translate(-3.326 41.971) rotate(-45)"/></g></svg>
