<svg id="Capa_1" enable-background="new 0 0 512.01 512.01" height="512" viewBox="0 0 512.01 512.01" width="512" xmlns="http://www.w3.org/2000/svg"><path d="m397.59 108.596-31.828-5.302c-20.441-3.405-41.268 3.271-55.919 17.926l-2.978 2.978h-101.72l-2.991-2.991c-14.62-14.616-35.504-21.287-55.906-17.916l-31.83 5.305c-15.466 2.577-26.801 15.958-26.801 31.637v56.131h336.776v-56.13c0-15.68-11.337-29.062-26.803-31.638z" fill="#eceaec"/><path d="m501.968 339.704-55.557-172.843c-3.673-11.428-13.422-19.849-25.262-21.822l-60.66-10.11c-9.519-1.586-19.206 1.201-26.408 7.512l-24.244 24.05c-4.349 3.741-9.91 5.818-15.686 5.818h-76.294c-6.379 0-12.498-2.535-17.009-7.046l-21.375-21.375c-7.324-7.324-17.735-10.661-27.953-8.958l-60.66 10.11c-11.841 1.973-21.589 10.394-25.262 21.822l-55.556 172.842c-6.451 20.07-.355 42.054 15.51 55.936 21.616 18.914 54.016 18.483 75.121-.998l53.306-49.206c8.887-8.203 20.538-12.759 32.632-12.759h138.786c12.094 0 23.745 4.555 32.632 12.759l53.306 49.206c21.105 19.482 53.506 19.913 75.121.998 15.868-13.882 21.963-35.866 15.512-55.936z" fill="#ff9a9f"/><path d="m356.46 268.53h-200.909c-12.149 0-23.255 6.864-28.688 17.73l-61.536 123.071c12.749-.629 25.326-5.44 35.347-14.689l53.306-49.206c8.887-8.204 20.538-12.759 32.633-12.759h138.784c12.095 0 23.746 4.555 32.633 12.759l53.306 49.206c10.02 9.249 22.597 14.06 35.347 14.689l-61.536-123.071c-5.433-10.867-16.539-17.73-28.687-17.73z" fill="#ff8086"/><circle cx="119.691" cy="204.382" fill="#ffe07d" r="32.074"/><circle cx="199.876" cy="268.53" fill="#eceaec" r="24.055"/><circle cx="312.134" cy="268.53" fill="#eceaec" r="24.055"/><circle cx="119.691" cy="204.382" fill="#ffd064" r="8.018"/><path d="m509.108 337.409-55.557-172.843c-3.518-10.946-11.462-19.576-21.658-24.069v-.264c0-19.426-13.908-35.843-33.071-39.036l-31.828-5.302c-22.781-3.795-46.128 3.689-62.456 20.021l-.781.781h-95.506l-.795-.795c-16.302-16.296-39.64-23.779-62.442-20.01l-31.83 5.305c-19.161 3.193-33.068 19.61-33.068 39.035v.265c-10.197 4.493-18.14 13.123-21.658 24.069l-55.556 172.843c-7.373 22.937-.421 48.01 17.711 63.875 12.054 10.548 27.004 15.801 41.945 15.8 15.501-.001 30.992-5.659 43.203-16.932l53.306-49.206c7.524-6.945 17.307-10.77 27.546-10.77h138.785c10.239 0 20.022 3.825 27.546 10.77l53.306 49.206c23.979 22.136 60.586 22.624 85.147 1.132 18.132-15.865 25.084-40.937 17.711-63.875zm-27.589 52.587c-8.686 7.601-19.343 11.598-30.103 12.032l-59.562-119.123c-6.747-13.494-20.31-21.876-35.396-21.876h-13.678c-3.375-13.79-15.832-24.055-30.647-24.055s-27.272 10.266-30.648 24.055h-50.963c-3.375-13.79-15.832-24.055-30.648-24.055-14.815 0-27.272 10.266-30.647 24.055h-13.678c-15.086 0-28.649 8.382-35.396 21.876-1.853 3.705-.351 8.21 3.354 10.062 1.077.538 2.221.793 3.348.793 2.751 0 5.4-1.52 6.714-4.148 4.189-8.379 12.612-13.584 21.979-13.584h13.678c3.375 13.79 15.832 24.055 30.647 24.055s27.272-10.266 30.648-24.055h50.963c3.375 13.79 15.832 24.055 30.648 24.055 14.815 0 27.272-10.266 30.647-24.055h13.678c9.368 0 17.79 5.205 21.979 13.584l54.847 109.688c-6.085-2.147-11.836-5.532-16.859-10.17l-53.306-49.206c-10.303-9.51-23.699-14.748-37.72-14.748h-138.785c-14.021 0-27.417 5.238-37.72 14.748l-53.306 49.206c-5.024 4.637-10.774 8.023-16.859 10.17l39.654-79.308c1.853-3.705.351-8.21-3.354-10.062-3.704-1.851-8.209-.351-10.062 3.354l-44.372 88.743c-10.76-.434-21.417-4.431-30.103-12.032-13.625-11.922-18.849-30.761-13.309-47.997l55.557-172.843c2.827-8.794 10.243-15.201 19.355-16.72l60.66-10.11c7.813-1.302 15.817 1.264 21.417 6.863l21.375 21.376c5.961 5.96 13.885 9.242 22.313 9.242h76.294c7.547 0 14.854-2.71 20.576-7.631 3.14-2.701 3.497-7.436.795-10.577-2.701-3.14-7.437-3.497-10.577-.795-3.001 2.582-6.835 4.003-10.795 4.003h-76.294c-4.422 0-8.58-1.722-11.707-4.849l-21.375-21.376c-9.017-9.017-21.911-13.148-34.489-11.052l-54.894 9.149c1.507-10.462 9.55-18.903 20.257-20.688l31.82-5.303c18.033-2.98 36.492 2.935 49.38 15.819l2.99 2.991c1.407 1.407 3.315 2.197 5.304 2.197h101.72c1.989 0 3.897-.791 5.304-2.197l2.977-2.978c12.911-12.913 31.375-18.83 49.383-15.83l31.828 5.302c10.708 1.784 18.751 10.225 20.259 20.687l-54.894-9.149c-11.749-1.959-23.626 1.42-32.584 9.269-3.115 2.73-3.428 7.468-.698 10.584 2.729 3.115 7.468 3.428 10.583.698 5.562-4.873 12.937-6.971 20.232-5.755l60.66 10.11c9.112 1.519 16.528 7.925 19.355 16.72l55.559 172.845c5.54 17.235.316 36.075-13.309 47.996zm-185.94-121.471c.003-9.126 7.428-16.551 16.555-16.551 9.117 0 16.535 7.409 16.553 16.521 0 .011-.002.022-.002.034s.002.022.002.034c-.019 9.113-7.437 16.521-16.553 16.521-9.127 0-16.553-7.424-16.555-16.551 0-.002 0-.003 0-.005s0-.002 0-.003zm-112.258-.005c.005-9.124 7.429-16.546 16.555-16.546 9.129 0 16.556 7.427 16.556 16.555s-7.427 16.555-16.556 16.555c-9.125 0-16.549-7.422-16.555-16.546 0-.003 0-.006 0-.01s0-.005 0-.008z"/><path d="m119.691 164.808c-21.821 0-39.574 17.753-39.574 39.574s17.753 39.574 39.574 39.574 39.574-17.753 39.574-39.574-17.753-39.574-39.574-39.574zm0 64.148c-13.55 0-24.574-11.024-24.574-24.574s11.024-24.574 24.574-24.574 24.574 11.024 24.574 24.574-11.024 24.574-24.574 24.574z"/><path d="m231.95 204.9h-8.018c-4.142 0-7.5 3.358-7.5 7.5s3.358 7.5 7.5 7.5h8.018c4.142 0 7.5-3.358 7.5-7.5s-3.358-7.5-7.5-7.5z"/><path d="m288.079 204.9h-8.018c-4.142 0-7.5 3.358-7.5 7.5s3.358 7.5 7.5 7.5h8.018c4.142 0 7.5-3.358 7.5-7.5s-3.358-7.5-7.5-7.5z"/><path d="m416.375 198.886h-22.569v-22.569c0-4.142-3.358-7.5-7.5-7.5s-7.5 3.358-7.5 7.5v22.569h-22.569c-4.142 0-7.5 3.358-7.5 7.5s3.358 7.5 7.5 7.5h22.569v22.569c0 4.142 3.358 7.5 7.5 7.5s7.5-3.358 7.5-7.5v-22.569h22.569c4.142 0 7.5-3.358 7.5-7.5s-3.358-7.5-7.5-7.5z"/></svg>