<?xml version="1.0" encoding="iso-8859-1"?>
<!-- Generator: Adobe Illustrator 19.0.0, SVG Export Plug-In . SVG Version: 6.00 Build 0)  -->
<svg version="1.1" id="Capa_1" xmlns="http://www.w3.org/2000/svg" xmlns:xlink="http://www.w3.org/1999/xlink" x="0px" y="0px"
	 viewBox="0 0 512 512" style="enable-background:new 0 0 512 512;" xml:space="preserve">
<g>
	<g>
		<g>
			<path d="M469.01,498.75l-21.333-85.333c-1.188-4.75-5.448-8.083-10.344-8.083h-10.667V275.368
				C439.056,270.951,448,259.221,448,245.333v-64c0-17.646-14.354-32-32-32h-32V128C384,57.417,326.583,0,256,0S128,57.417,128,128
				v21.333H96c-17.646,0-32,14.354-32,32v64c0,13.888,8.944,25.617,21.333,30.035v129.965H74.667c-4.896,0-9.156,3.333-10.344,8.083
				L42.99,498.75c-0.802,3.188-0.083,6.563,1.938,9.146c2.021,2.594,5.125,4.104,8.406,4.104h85.333
				c5.896,0,10.667-4.771,10.667-10.667V367.962c3.694,1.323,8.013,2.701,13.033,4.142l12.415,36.656
				c0.927,2.719,2.917,4.958,5.51,6.198c0.52,0.249,7.428,3.389,20.893,6.359l-9.049,57.005c-0.49,3.083,0.396,6.229,2.417,8.604
				c2.031,2.375,4.99,3.74,8.115,3.74h106.667c3.125,0,6.083-1.365,8.115-3.74c2.021-2.375,2.906-5.521,2.417-8.604l-9.049-57.005
				c13.465-2.97,20.374-6.111,20.893-6.359c2.604-1.24,4.583-3.479,5.51-6.208l12.405-36.642c5.025-1.443,9.346-2.822,13.043-4.146
				v133.371c0,5.896,4.771,10.667,10.667,10.667h85.333c3.281,0,6.385-1.51,8.406-4.104
				C469.094,505.313,469.813,501.938,469.01,498.75z M128,490.667h-21.333V480c0-5.896-4.771-10.667-10.667-10.667
				S85.333,474.104,85.333,480v10.667H67l16-64h13h32V490.667z M128,352v53.333h-21.333v-128H128V352z M128,256H96
				c-5.885,0-10.667-4.781-10.667-10.667v-64c0-5.885,4.781-10.667,10.667-10.667h32V256z M266.667,469.333v-10.667
				c0-5.896-4.771-10.667-10.667-10.667s-10.667,4.771-10.667,10.667v10.667h-30.177l7.072-44.533
				c9.566,1.112,20.76,1.866,33.772,1.866s24.206-0.754,33.772-1.866l7.072,44.533H266.667z M318.615,397.167
				c-8.052,2.708-28.521,8.167-62.615,8.167c-34.135,0-54.604-5.469-62.615-8.167l-6.559-19.361
				C205.199,381.292,228.053,384,256,384c27.945,0,50.798-2.708,69.171-6.194L318.615,397.167z M362.667,345.146
				c-13.042,5.396-48.813,17.521-106.667,17.521s-93.625-12.125-106.667-17.521V175.962C168.026,182.656,203.319,192,256,192
				s87.974-9.344,106.667-16.038V345.146z M214.376,168.267l8.582-82.934h66.083l8.582,82.934c-12.382,1.395-26.016,2.4-41.624,2.4
				S226.758,169.661,214.376,168.267z M362.667,153.112c-7.219,3.014-21.867,8.115-43.901,12.124l-9.484-91.663
				C308.719,68.135,304.135,64,298.667,64h-85.333c-5.469,0-10.052,4.135-10.615,9.573l-9.484,91.663
				c-22.034-4.009-36.682-9.109-43.901-12.124V128c0-58.813,47.854-106.667,106.667-106.667S362.667,69.188,362.667,128V153.112z
				 M384,170.667h32c5.885,0,10.667,4.781,10.667,10.667v64c0,5.885-4.781,10.667-10.667,10.667h-32V170.667z M384,352v-74.667
				h21.333v128H384V352z M426.667,490.667V480c0-5.896-4.771-10.667-10.667-10.667c-5.896,0-10.667,4.771-10.667,10.667v10.667H384
				v-64h32h13l16,64H426.667z"/>
			<circle cx="256" cy="128" r="21.333"/>
			<path d="M192,245.333c0,5.896,4.771,10.667,10.667,10.667h106.667c5.896,0,10.667-4.771,10.667-10.667
				c0-5.896-4.771-10.667-10.667-10.667H202.667C196.771,234.667,192,239.438,192,245.333z"/>
			<path d="M309.333,298.667H202.667c-5.896,0-10.667,4.771-10.667,10.667c0,5.896,4.771,10.667,10.667,10.667h106.667
				c5.896,0,10.667-4.771,10.667-10.667C320,303.438,315.229,298.667,309.333,298.667z"/>
			<circle cx="330.667" cy="138.667" r="10.667"/>
		</g>
	</g>
</g>
<g>
</g>
<g>
</g>
<g>
</g>
<g>
</g>
<g>
</g>
<g>
</g>
<g>
</g>
<g>
</g>
<g>
</g>
<g>
</g>
<g>
</g>
<g>
</g>
<g>
</g>
<g>
</g>
<g>
</g>
</svg>
