<svg id="Capa_1" enable-background="new 0 0 512 512" height="512" viewBox="0 0 512 512" width="512" xmlns="http://www.w3.org/2000/svg"><ellipse cx="294.692" cy="283.908" fill="#ff4755" rx="217.308" ry="177.469"/><path d="m294.692 106.438c-3.114 0-6.209.066-9.291.172 115.705 3.976 208.018 81.827 208.018 177.297s-92.313 173.321-208.018 177.297c3.082.106 6.177.172 9.291.172 120.016.001 217.308-79.455 217.308-177.468 0-98.014-97.292-177.47-217.308-177.47z" fill="#fc2b3a"/><path d="m287.64 172.848c21.694-1.336 77.297 34.492 89.948 25.004s-39.533-38.743-39.533-49.812 83.02-9.488 85.392-20.557-54.123-19.312-99.981-20.893 9.813-51.701-14.666-55.802c-30.549-5.118-53.968 55.727-75.02 60.134-20.042 4.195-79.439 2.701-88.475 24.323-7.933 18.982 67.824 6.469 75.731 20.701s-33.857 44.309-23.714 56.46c15.116 18.107 63.696-37.918 90.318-39.558z" fill="#98db7c"/><g fill="#82d361"><path d="m219.616 137.364c-5.719-10.294-46.93-6.599-66.298-10.947-3.742 2.416-6.545 5.315-8.013 8.828-7.135 17.074 53.437 8.669 71.437 17.166 3.386-5.77 5.102-11.037 2.874-15.047z"/><path d="m403.306 116.004c-25.154 4.123-66.671 5.625-66.671 13.453 0 3.194 4.349 7.905 10.229 13.216 21.431-5.58 74.69-6.357 76.583-15.192.929-4.336-7.179-8.239-20.141-11.477z"/><path d="m370.66 180.86c-18.762.588-65.089-27.786-84.439-26.594-24.578 1.514-67.868 49.376-86.267 42.473-3.891 6.29-5.811 11.859-2.632 15.667 15.116 18.108 63.696-37.918 90.318-39.558 21.694-1.337 77.297 34.492 89.948 25.004 4.74-3.555.379-9.884-6.928-16.992z"/></g><path d="m5.162 308.564c-2.898 0-5.228 2.378-5.161 5.275.623 26.915 11.65 147.679 159.399 147.679h3.936c147.749 0 158.775-120.764 159.398-147.679.067-2.897-2.263-5.275-5.161-5.275z" fill="#ff7b8b"/><path d="m321.624 310.562c-4.902 41.727-30.28 132.374-158.289 132.374h-3.935c-128.009 0-153.387-90.648-158.289-132.374-.708.905-1.138 2.036-1.109 3.277.622 26.915 11.649 147.679 159.398 147.679h3.936c147.749 0 158.775-120.764 159.398-147.679.028-1.242-.402-2.372-1.11-3.277z" fill="#ff647e"/><path d="m157.938 374.453h-.704c-18.084 0-33.474-5.248-45.739-15.599-8.059-6.8-11.984-13.628-12.015-13.69-6.304-12.412-21.477-17.365-33.89-11.06-12.413 6.304-17.364 21.477-11.06 33.89 1.18 2.322 29.725 56.873 102.704 56.873h.704-.844.704c72.98 0 101.525-54.551 102.705-56.873 6.304-12.412 1.352-27.585-11.06-33.89-12.413-6.305-27.585-1.352-33.89 11.06-.032.062-3.956 6.89-12.015 13.69-12.266 10.35-27.655 15.599-45.74 15.599h-.704" fill="#ff4755"/><path d="m260.503 349.412c-1.18 2.322-29.725 56.874-102.705 56.874h-.565c-72.98 0-101.525-54.551-102.704-56.874-.355-.698-.669-1.407-.953-2.121-2.568 6.484-2.453 13.996.953 20.703 1.18 2.322 29.725 56.873 102.704 56.873h.565c72.98 0 101.525-54.551 102.705-56.873 3.406-6.707 3.521-14.218.953-20.702-.284.713-.598 1.422-.953 2.12z" fill="#fc2b3a"/><path d="m157.318 414.137c6.257 0 11.346-5.09 11.346-11.346 0-4.109-2.689-15.39-11.346-15.39s-11.346 11.281-11.346 15.39c0 6.256 5.09 11.346 11.346 11.346z" fill="#ffe55a"/><path d="m93.96 391.501c2.905 0 5.81-1.106 8.022-3.316.001-.001.002-.002.002-.002 1.738-1.739 3.259-4.416 4.101-6.342 2.999-6.851.508-10.812-1.242-12.561-6.119-6.121-15.999-.048-18.907 2.858-4.422 4.424-4.422 11.621.002 16.047 2.211 2.21 5.116 3.316 8.022 3.316z" fill="#ffe55a"/><path d="m211.828 388.183c.001 0 .001.001.002.002 2.212 2.21 5.116 3.315 8.021 3.315s5.812-1.106 8.025-3.317c4.422-4.424 4.422-11.621-.002-16.047-2.906-2.904-12.784-8.977-18.903-2.858-1.752 1.751-4.243 5.712-1.244 12.563.843 1.926 2.363 4.603 4.101 6.342z" fill="#ffe55a"/></svg>