<svg height="512" viewBox="0 0 60 60" width="512" xmlns="http://www.w3.org/2000/svg"><g id="Page-1" fill="none" fill-rule="evenodd"><g id="038---Flowers" fill="rgb(0,0,0)" fill-rule="nonzero"><path id="Shape" d="m24.316 16.3c1.4900393 1.0454741 3.463163 1.090337 4.9991798.1136663 1.5360168-.9766706 2.3323825-2.7825033 2.0177018-4.5753249-.3146806-1.7928215-1.6784261-3.21950596-3.4552362-3.6147007-1.7768101-.39519473-3.6167126.31894038-4.6616454 1.8093593-.6913542.97491-.9641001 2.1858226-.7574802 3.3629923.2066198 1.1771697.8754427 2.2228157 1.8574802 2.9040077zm.537-5.12c.7927964-1.13023 2.3516586-1.40388864 3.4820119-.6112681 1.1303533.7926206 1.4042544 2.3514403.6118097 3.4819168-.7924448 1.1304766-2.3512218 1.4046202-3.4818216.6123513-1.1292158-.7924591-1.4030984-2.3498305-.612-3.48z"/><path id="Shape" d="m57.541 20.88c1.221-1.116 2.605-2.382 2.317-4.05s-2.027-2.386-3.557-3.017c-.7411566-.2390299-1.4322367-.6118539-2.039-1.1-.4012191-.7032282-.6652303-1.4762583-.778-2.278-.36-1.588-.767-3.388-2.3-3.947-1.487-.554-2.931.532-4.2 1.49-.6327485.56528789-1.3694349 1.00206919-2.169 1.286-.8445552.005806-1.6822651-.15175275-2.467-.464-1.528-.465-3.257-.993-4.476.033-.2614462.22779102-.4723031.50779804-.619.822-.4945727-.34106765-.9169756-.77638396-1.243-1.281-.1852608-.75435147-.2306779-1.53627238-.134-2.307.075-1.655.159-3.531-1.228-4.5s-3.124-.259-4.648.374c-.692228.35632934-1.4446881.58081271-2.219.662-.7793205-.21488502-1.5111139-.57484459-2.157-1.061-1.381-.869-2.944-1.852-4.424-1.165-1.437.663-1.69 2.451-1.914 4.029-.0482429.84559881-.2598052 1.67385015-.623 2.439-.5954195.60235766-1.3017236 1.08386688-2.08 1.418-1.406.749-3 1.6-3.134 3.173-.141 1.64 1.33 2.773 2.629 3.773l.17.134-5.382 22.486-6.1-2.31c-.78069123-.2820935-1.65448525-.0526222-2.19583593.5766591-.54135069.6292813-.63771559 1.5275502-.24216407 2.2573409l1.272 2.339-2.369 1.146c-.72360371.3501529-1.16724265 1.0995132-1.12622879 1.9023378.04101387.8028245.55870891 1.5030732 1.31422879 1.7776622l5.9 2.2-3.449 2.138c-.57214038.3531029-.92858315.9700487-.94871579 1.6420762s.29873905 1.3092044.84871579 1.6959238l8.982 6.295c.5503301.3833369 1.2561642.4653137 1.8797029.2183119s1.081764-.7900963 1.2202971-1.4463119l1.174-5.561 33.915-22.341c.2334605-.1565634.4308499-.3611121.579-.6.6322546.1991206 1.2885371.3118088 1.951.335.6359167.0236317 1.2593645-.180638 1.758-.576 1.254-1.052 1.024-2.883.82-4.5-.1665824-.7898613-.1832043-1.6039976-.049-2.4.4030461-.6687061.9253592-1.2577913 1.541-1.738zm-42.1-9.275c.042-.491 1.221-1.118 2.081-1.576 1.0680084-.45993167 2.0178224-1.15605164 2.778-2.036.5675485-1.01519997.8974888-2.1458865.965-3.307.136-.965.323-2.286.773-2.494.494-.231 1.615.475 2.515 1.041.8988833.68079681 1.9408244 1.14825117 3.047 1.367 1.1011153-.02344211 2.1821764-.29918113 3.16-.806 1-.416 2.246-.933 2.736-.588s.427 1.692.378 2.776c-.138544 1.08942611-.027056 2.19609848.326 3.236.584658.9646617 1.3793801 1.7850201 2.325 2.4.837.651 1.88 1.46 1.831 2-.043.492-1.221 1.121-2.081 1.581-.157.084-.311.17-.467.255-.069-.013-.135-.03-.209-.039-1.624-.136-2.755 1.314-3.75 2.6-.4436092.6801592-1.0119449 1.2702104-1.675 1.739-.7568978.18834-1.5420926.2351262-2.316.138-.957344-.0949107-1.9235246-.0450173-2.866.148l-5.1-6.161c-.6579998-.8287505-1.8580124-.9789743-2.7-.338-.827-.635-1.792-1.405-1.752-1.936zm29.684 9.612c-.5445761-.3798403-.9138603-.9624087-1.025-1.617-.1268972-.7267765.0737007-1.4724927.5480938-2.0375219.4743932-.5650293 1.1741351-.8916689 1.9119062-.8924781 1.0777978.0003462 2.0340452.6913979 2.3726326 1.7146314.3385874 1.0232336-.0167154 2.1482765-.8815741 2.7914465-.8648586.6431701-2.0445575.659663-2.9270585.0409221zm-.288 2.792c.2.439-.32 1.367-.811 2.158-1.8021766.3680344-3.5653997.9061088-5.266 1.607-.4273346-1.7048336-1.8102892-3.0034551-3.5386058-3.3228203s-3.4840299.3992809-4.4923942 1.8388203c-.0866402.129235-.166741.2627362-.24.4l-3.989-4.823c.41-.008.848.007 1.267.026 1.0923176.1421907 2.2026904.0323849 3.246-.321.972694-.5811994 1.7989277-1.3780103 2.415-2.329.646-.834 1.4-1.876 1.965-1.832.0505647.0061552.1000341.0192798.147.039.477.2 1.021 1.228 1.458 2.051.4596551 1.0684745 1.155402 2.0189297 2.035 2.78 1.0174454.5693738 2.1509993.9000365 3.315.967.963.135 2.283.321 2.488.761zm-28.686 26.869-5.439-3.812 1.5-6.275 9.328 6.537zm-3.438-12.178 5.633-23.547 11.845 14.3.012.014 2.826 3.412 3.678 4.46-13.37 8.806zm19.258-10.218c.0484282-.3738872.1833298-.7313421.394-1.044.5886879-.8522006 1.6446827-1.2492392 2.6490047-.995987s1.7457874 1.1035425 1.8599953 2.132987c-1.0973333.4933333-2.2423333 1.0536667-3.435 1.681zm-27.034 13.782c.36819086-.1789457.64724836-.5006005.77244684-.8903586.12519847-.3897582.08565923-.813753-.10944684-1.1736414l-1.527-2.8 6.327 2.39-1.528 6.37-6.772-2.522zm8.97 15.589-8.984-6.296 4.624-2.865 5.472 3.835zm24.479-21.619-3.644-4.4c3.2111448-1.8062816 6.687239-3.0944613 10.3-3.817.0832319-.0027046.1658315-.0154639.246-.038.959313-.146905 1.9359207-.1398159 2.893.021.6011985.0914886 1.171193.3275851 1.661.688zm15.736-14.306c-.2714892 1.0946446-.2913194 2.2365893-.058 3.34.133 1.053.3 2.364-.115 2.711-.357.293-1.472-.013-2.391-.294-.1262223-.2247559-.2942361-.4233177-.495-.585-.7380201-.5498629-1.5969607-.9150413-2.505-1.065-.6925449-.1254758-1.396702-.1751021-2.1-.148.3620233-.6864328.4834943-1.4744097.345-2.238.1777689-.0052343.3550755-.0209281.531-.047 1.9670139-.3108023 3.5066006-1.8590581 3.8063532-3.8277861.2997527-1.968728-.7092857-3.9050299-2.4946671-4.7871607s-3.9363858-.5071597-5.3179744.9270491c-1.3815885 1.4342087-1.675932 3.597721-.7277117 5.3488977-.8377394-.0484482-1.6581725-.2586502-2.416-.619-.6020858-.5958193-1.0832546-1.3024616-1.417-2.081-.3187395-.6400852-.6886063-1.2534086-1.106-1.834 1.276-.7 2.564-1.524 2.687-2.928.0049644-1.1034789-.5226571-2.1415937-1.417-2.788-.0030691-.2408093.0819228-.4744479.239-.657.379-.322 1.662.069 2.6.355 1.0766788.4294765 2.2369693.6083247 3.393.523 1.1211978-.315895 2.1559283-.8825005 3.026-1.657.778-.586 1.845-1.389 2.309-1.212.514.187.806 1.476 1.041 2.511.1557731 1.1179683.5629793 2.1860723 1.191 3.124.7973812.7603965 1.7577558 1.3288233 2.808 1.662 1 .413 2.248.927 2.351 1.511s-.9 1.5-1.7 2.231c-.8720991.6730713-1.5790549 1.5363303-2.067 2.524z"/></g></g></svg>