<!--?xml version="1.0" encoding="utf-8"?-->
<!-- Generator: Adobe Illustrator 18.1.1, SVG Export Plug-In . SVG Version: 6.00 Build 0)  -->

<svg version="1.1" id="_x32_" xmlns="http://www.w3.org/2000/svg" xmlns:xlink="http://www.w3.org/1999/xlink" x="0px" y="0px" viewBox="0 0 512 512" style="width: 256px; height: 256px; opacity: 1;" xml:space="preserve">
<style type="text/css">
	.st0{fill:#4B4B4B;}
</style>
<g>
	<path class="st0" d="M413.807,0H98.193v63.123h10.603c-0.018,0.619-0.081,1.22-0.081,1.83v45.955
		c0,32.49,13.446,63.526,37.145,85.736l41.748,39.147c3.354,3.157,5.274,7.543,5.274,12.163v18.864c0,4.62-1.92,9.015-5.274,12.173
		l-41.748,39.146c-23.698,22.21-37.145,53.238-37.145,85.737v45.003H98.193V512h315.615v-63.123h-10.53v-45.003
		c0-32.499-13.447-63.527-37.137-85.737l-41.747-39.146c-3.364-3.158-5.275-7.553-5.275-12.173v-18.864
		c0-4.62,1.912-9.006,5.257-12.163l41.766-39.147c23.69-22.21,37.137-53.246,37.137-85.736V64.953c0-0.61-0.054-1.211-0.081-1.83
		h10.611V0z M292.819,247.954v18.864c0,11.885,4.915,23.242,13.581,31.351l41.747,39.146c18.389,17.24,28.83,41.344,28.83,66.559
		v45.003H135.015v-45.003c0-25.215,10.441-49.319,28.83-66.55l41.748-39.155c8.664-8.109,13.581-19.466,13.581-31.351v-18.864
		c0-11.886-4.916-23.233-13.581-31.36l-41.748-39.146c-18.388-17.232-28.83-41.326-28.83-66.54V64.953
		c0-0.628,0.117-1.211,0.188-1.83h241.585c0.072,0.619,0.188,1.202,0.188,1.83v45.955c0,25.215-10.441,49.308-28.83,66.54
		l-41.747,39.146C297.734,224.721,292.819,236.068,292.819,247.954z" style="fill: rgb(75, 75, 75);"></path>
</g>
</svg>
