<svg xmlns="http://www.w3.org/2000/svg" width="24" height="24" viewBox="0 0 24 24">
  <path d="M4.70710678,20 L7.5,20 C7.77614237,20 8,20.2238576 8,20.5 C8,20.7761424 7.77614237,21 7.5,21 L3.5,21 C3.22385763,21 3,20.7761424 3,20.5 L3,16.5 C3,16.2238576 3.22385763,16 3.5,16 C3.77614237,16 4,16.2238576 4,16.5 L4,19.2928932 L9.14644661,14.1464466 C9.34170876,13.9511845 9.65829124,13.9511845 9.85355339,14.1464466 C10.0488155,14.3417088 10.0488155,14.6582912 9.85355339,14.8535534 L4.70710678,20 Z M19.2928932,4 L16.5,4 C16.2238576,4 16,3.77614237 16,3.5 C16,3.22385763 16.2238576,3 16.5,3 L20.5,3 C20.7761424,3 21,3.22385763 21,3.5 L21,7.53112887 C21,7.80727125 20.7761424,8.03112887 20.5,8.03112887 C20.2238576,8.03112887 20,7.80727125 20,7.53112887 L20,4.70710678 L14.8535534,9.85355339 C14.6582912,10.0488155 14.3417088,10.0488155 14.1464466,9.85355339 C13.9511845,9.65829124 13.9511845,9.34170876 14.1464466,9.14644661 L19.2928932,4 L19.2928932,4 Z"/>
</svg>
